<svg xmlns="http://www.w3.org/2000/svg" version="1.1" xmlns:xlink="http://www.w3.org/1999/xlink" xmlns:svgjs="http://svgjs.dev/svgjs" width="100%" height="100%" viewBox="0 0 1000 600"><rect width="1000" height="600" x="0" y="0" fill="#d2302c"/><g><circle r="166.66666666666666" cx="355.41511027018225" cy="377.6372980989156" fill="#f7f7f9" transform="matrix(0.6622572949354887,0,0,0.6622572949354887,0,49.90695975305448)"/><path d="M268.6091005960646 452.637285710785L268.6091005960646 452.637285710785Q252.2211415661663 452.637285710785 238.97699508486073 446.9851120861874Q225.73284860355517 441.33293846158983 219.71278202114357 428.3229056807114L219.71278202114357 428.3229056807114Q218.040541303807 424.2426383304102 216.93686243036487 419.52691950752114Q215.86662837126946 414.84464549897876 215.86662837126946 409.79447853262235L215.86662837126946 409.79447853262235Q215.86662837126946 397.25267315259816 221.65258125325397 383.0386270552374Q227.40508932089173 368.85802577222336 238.74288138443362 355.0118726326766Q250.04722863362878 341.1657194931299 267.0371943217682 329.5938137291609Q283.993715195561 318.02190796519193 306.40174080787085 310.79782806629794L306.40174080787085 310.79782806629794Q311.45190777422727 308.89147364853426 321.318128006513 307.3195673742379Q331.21779305314544 305.7476610999415 341.7863543867125 305.7476610999415L341.7863543867125 305.7476610999415Q348.7763205851793 305.7476610999415 355.3983938258321 306.71756071599674Q362.02046706648485 307.68746033205196 367.3381925476151 310.3296006654437L367.3381925476151 310.3296006654437Q373.82648653088097 313.4734132140365 376.70274056469987 317.7877942647648Q379.61243941286546 322.1356201298398 379.61243941286546 327.4199007966234L379.61243941286546 327.4199007966234Q379.61243941286546 332.73762627775363 376.70274056469987 338.99180656059235L376.70274056469987 338.99180656059235Q375.2646135477904 341.86806059441125 372.4886939570117 344.4098664847628Q369.74621918057977 346.91822756076766 367.80641994846934 348.12224087724996L367.80641994846934 348.12224087724996Q364.9301659146505 350.0620401093604 362.99036668254007 350.0620401093604L362.99036668254007 350.0620401093604Q362.02046706648485 350.0620401093604 362.02046706648485 349.3262541937323L362.02046706648485 349.3262541937323Q362.02046706648485 347.65401347639573 365.1642796150776 345.4801005438582L365.1642796150776 345.4801005438582Q368.77631956452456 343.07207391089355 370.5823395392481 339.2259202610195Q372.3883595139715 335.3797666111454 372.3883595139715 331.03194074607035L372.3883595139715 331.03194074607035Q372.3883595139715 326.215887480141 370.0806673240471 321.7677271720258Q367.80641994846934 317.31956686391055 362.99036668254007 314.9115402309459L362.99036668254007 314.9115402309459Q358.17431341661074 312.5035135979812 351.920133133772 311.533613981926Q345.6659528509333 310.56371436587085 338.9101003528936 310.56371436587085L338.9101003528936 310.56371436587085Q329.51210752146216 310.56371436587085 320.8499006056587 312.00184138278024Q312.18769368985534 313.4734132140365 307.8398678247803 314.9115402309459L307.8398678247803 314.9115402309459Q287.3716414445808 321.6339479146389 272.22114054551156 332.3697333199396Q257.03719483209557 343.07207391089355 247.03719534242296 355.714213733958Q237.03719585275033 368.3563535570224 232.12080814378083 381.50016559528774Q227.17097562046462 394.61053281920636 227.17097562046462 406.1824385831754L227.17097562046462 406.1824385831754Q227.17097562046462 411.9349466508131 228.37498893694692 417.2526721319434Q229.57900225342928 422.53695279872693 231.98702888639392 426.88477866380197L231.98702888639392 426.88477866380197Q237.53886806795128 436.7509988960877 249.3448875323474 441.43327290463003Q261.1174621823968 446.14899172751916 275.8331804949585 446.14899172751916L275.8331804949585 446.14899172751916Q290.7495676936006 446.14899172751916 306.635854508298 441.8011658624441Q322.5221413229953 437.4867848117158 336.26796001950186 429.995146398048L336.26796001950186 429.995146398048Q339.8799999689488 428.0887919802843 344.79638767791835 424.47675203083736Q349.7462202012345 420.8647120813904 354.4284942097769 416.75099991674244Q359.144213032666 412.67073256644125 361.7863533660577 409.5269200178485L361.7863533660577 409.5269200178485Q363.4585940833943 407.8546793005119 364.9301659146505 407.8546793005119L364.9301659146505 407.8546793005119Q365.86662071635897 407.8546793005119 365.86662071635897 408.82457891656713L365.86662071635897 408.82457891656713Q365.86662071635897 409.79447853262235 363.4585940833943 412.90484626686833L363.4585940833943 412.90484626686833Q359.3783267330931 417.72089953279766 352.52213979201326 423.7409661152093Q345.6659528509333 429.76103269762086 338.17431443726554 433.8747448622688L338.17431443726554 433.8747448622688Q322.78969983776915 442.0352795628712 304.22782787533333 447.3530050440015Q285.6994007272442 452.637285710785 268.6091005960646 452.637285710785ZM408.7428727088684 445.9148780270921L408.7428727088684 445.9148780270921Q398.1408665609546 445.9148780270921 388.04053262824175 443.97507879498164L388.04053262824175 443.97507879498164Q382.72280714711144 442.7710654784993 379.2445464550515 441.09882476116275Q375.7662857629914 439.39313922947946 373.0907006152529 438.42323961342424L373.0907006152529 438.42323961342424Q369.74621918057977 436.7509988960877 369.74621918057977 434.5770859635502L369.74621918057977 434.5770859635502Q369.74621918057977 433.607186347495 371.1843461974892 433.607186347495L371.1843461974892 433.607186347495Q371.65257359834345 433.607186347495 372.15424581354443 433.607186347495Q372.62247321439867 433.607186347495 373.35825913002674 434.1088585626959L373.35825913002674 434.1088585626959Q376.9702990794737 435.5469855796054 381.0505664297749 437.219226296942Q385.13083378007616 438.9249118286252 389.4786596451512 439.39313922947946L389.4786596451512 439.39313922947946Q391.4184588772616 439.6272529299066 394.5288266115076 439.89481144468044Q397.67263916010035 440.1289251451076 401.05056540912017 440.1289251451076L401.05056540912017 440.1289251451076Q407.53885939238603 440.1289251451076 414.5288255908529 439.0252462716654Q421.5187917893197 437.95501221257 426.334845055249 435.1790926217913Q431.15089832117826 432.40317303101267 431.15089832117826 427.1188923642291L431.15089832117826 427.1188923642291Q431.15089832117826 424.2426383304102 427.27129985695746 419.8948124653351Q423.42514620708334 415.5469866002601 417.40507962467177 409.89481297566255Q411.38501304226014 404.24263935106495 404.9970535020345 397.48678685302525Q398.64253877615556 390.7643791693323 393.82648551022623 383.3061855700112L393.82648551022623 383.3061855700112Q389.4786596451512 376.3162193715444 386.4686263539454 368.4901328144093Q383.4585930627396 360.6640462572742 383.4585930627396 352.47006674232506L383.4585930627396 352.47006674232506Q383.4585930627396 339.4600339614466 389.6124389025381 330.06204113001513Q395.7328399279899 320.69749311293043 405.9669531180897 314.67742653051874Q416.2010663081894 308.6573599481071 428.1408650299725 305.6473266569013Q440.04721893740884 302.63729336569554 451.61912470137776 302.63729336569554L451.61912470137776 302.63729336569554Q457.37163276901555 302.63729336569554 462.45524454971866 303.3396344669769L462.45524454971866 303.3396344669769Q468.94353853298463 304.075420382605 476.53551138969254 306.5837814586098Q484.12748424640057 309.1255873489614 489.54554417057096 314.17575431531776Q494.96360409474147 319.22592128167423 494.96360409474147 327.65401449705047L494.96360409474147 327.65401449705047Q494.96360409474147 336.5837799276277 489.4117649131841 344.7777594425769Q483.8599257316267 352.9382941431793 475.7997254740645 359.0921399829778Q467.7395252165023 365.2459858227764 460.04721791675405 368.3563535570224L460.04721791675405 368.3563535570224Q458.5756460854979 368.85802577222336 457.63919128378944 368.85802577222336L457.63919128378944 368.85802577222336Q455.9335057521061 368.85802577222336 455.9335057521061 368.12223985659523L455.9335057521061 368.12223985659523Q455.9335057521061 367.654012455741 457.13751906858846 366.784447282726Q458.34153238507076 365.9483269240577 458.5756460854979 365.7142132236306L458.5756460854979 365.7142132236306Q464.12748526705525 361.3663873585555 469.3114314907986 357.8881266664955Q474.4953777145419 354.40986597443543 478.5756450648432 349.59381270850616L478.5756450648432 349.59381270850616Q483.3916983307725 344.04197352694877 485.6659457063502 338.85802730320546Q487.9736378962746 333.6740810794621 487.9736378962746 329.12558632830667L487.9736378962746 329.12558632830667Q487.9736378962746 321.39983421421175 481.58567835604896 316.1155535474282Q475.1977188158233 310.79782806629794 463.15758565100003 309.3597010493885L463.15758565100003 309.3597010493885Q460.9836727184625 309.1255873489614 458.8432046002717 308.99180809157446Q456.66929166773417 308.89147364853426 454.49537873519665 308.89147364853426L454.49537873519665 308.89147364853426Q443.1910314860015 308.89147364853426 431.61912572203255 312.1356206401672Q420.0472199580635 315.3797676318001 410.4151134262049 321.5336134715987Q400.7830068943464 327.65401449705047 394.89671956932165 336.08210771242676Q389.01043224429696 344.510200927803 389.01043224429696 355.1122070757168L389.01043224429696 355.1122070757168Q389.01043224429696 367.38645394096716 398.1408665609546 380.89815893704656L398.1408665609546 380.89815893704656Q403.191033527311 388.1222388359405 410.18099972577784 394.8446465196335Q417.1709659242447 401.6004990176732 424.0271528653245 407.720900043125Q430.8833398064044 413.87474588292355 435.3649449288664 419.4265850644809Q439.81310523698164 424.9449794316916 439.81310523698164 429.76103269762086L439.81310523698164 429.76103269762086Q439.81310523698164 435.78109928003244 435.3649449288664 439.39313922947946Q430.8833398064044 443.0051791789264 423.79303916489744 444.4433061958359Q416.7027385233904 445.9148780270921 408.7428727088684 445.9148780270921Z " fill="#d2302c" transform="matrix(0.6622572949354887,0,0,0.6622572949354887,0,49.90695975305448)"/><path d="M643.396801874825 410.6575252685631L643.396801874825 410.6575252685631Q631.5952602176931 410.6575252685631 622.057687776419 406.58719763579717Q612.520115335145 402.5168700030313 608.184855134566 393.147891014002L608.184855134566 393.147891014002Q606.9806161899606 390.20954798916506 606.1858184865212 386.8135941653781Q605.4151055619737 383.4417251204833 605.4151055619737 379.80492350777524L605.4151055619737 379.80492350777524Q605.4151055619737 370.7731314232355 609.5817723103081 360.53710039409043Q613.7243542797503 350.32515414383744 621.8890943241743 340.35405568250553Q630.0297495897062 330.3829572211736 642.264817266896 322.04962372450495Q654.4758001651937 313.7162902278363 670.6126020229049 308.51397798714135L670.6126020229049 308.51397798714135Q674.2494036356129 307.14114559029133 681.3544134087841 306.00916098236235Q688.4835079608475 304.87717637443336 696.094298090753 304.87717637443336L696.094298090753 304.87717637443336Q701.1280168792032 304.87717637443336 705.8968030998401 305.57563496230443Q710.6655893204772 306.2740935501755 714.4950691643221 308.17679108265185L714.4950691643221 308.17679108265185Q719.1675162693907 310.4407602985099 721.2388072541116 313.54769677559153Q723.3341830177251 316.6787180315653 723.3341830177251 320.48411309651806L723.3341830177251 320.48411309651806Q723.3341830177251 324.3135929403629 721.2388072541116 328.81744659318673L721.2388072541116 328.81744659318673Q720.2031617617513 330.8887375779079 718.2041251137064 332.71918077370793Q716.2291732445537 334.52553919061586 714.8322560688116 335.3925912307317L714.8322560688116 335.3925912307317Q712.7609650840905 336.78950840647383 711.3640479083483 336.78950840647383L711.3640479083483 336.78950840647383Q710.6655893204772 336.78950840647383 710.6655893204772 336.2596432708475L710.6655893204772 336.2596432708475Q710.6655893204772 335.0554043262422 712.9295585363352 333.48989369825534L712.9295585363352 333.48989369825534Q715.5307146566827 331.7557896180237 716.8312927168563 328.9860400454315Q718.1318707770301 326.21629047283926 718.1318707770301 323.0852692168655L718.1318707770301 323.0852692168655Q718.1318707770301 319.61706105640224 716.4700210334747 316.41378546375216Q714.8322560688116 313.21050987110203 711.3640479083483 311.4764057908704L711.3640479083483 311.4764057908704Q707.895839747885 309.74230171063874 703.3919860950612 309.04384312276767Q698.8881324422373 308.3453845348966 694.0230071060319 308.3453845348966L694.0230071060319 308.3453845348966Q687.25518423735 308.3453845348966 681.0172265042946 309.38103002725717Q674.7792687712392 310.4407602985099 671.6482475152654 311.4764057908704L671.6482475152654 311.4764057908704Q656.9083628332965 316.3174463481837 645.9979579951724 324.04866037254976Q635.0634683781564 331.7557896180237 627.8621194894165 340.8598360392398Q620.6607706006769 349.96388246045586 617.1203081035374 359.4292005650535Q613.5557608275055 368.8704338907591 613.5557608275055 377.2037673874278L613.5557608275055 377.2037673874278Q613.5557608275055 381.34634935687006 614.4228128676214 385.17582920071493Q615.2898649077372 388.98122426566766 617.0239689879688 392.11224552164146L617.0239689879688 392.11224552164146Q621.0220422840584 399.21725529481273 629.5239692329719 402.5891243397076Q638.0018114029932 405.98507816349456 648.5991141155199 405.98507816349456L648.5991141155199 405.98507816349456Q659.3409255013992 405.98507816349456 670.7811954751496 402.85405690752077Q682.2214654489 399.74712043043905 692.1203095735555 394.3521299586073L692.1203095735555 394.3521299586073Q694.7214656939029 392.9792975617573 698.2619281910426 390.3781414414098Q701.8264754670743 387.77698532106234 705.198344511969 384.8145575173333Q708.5942983357561 381.8762144924964 710.4969958682325 379.6122452766384L710.4969958682325 379.6122452766384Q711.7012348128378 378.4080063320331 712.7609650840905 378.4080063320331L712.7609650840905 378.4080063320331Q713.4353388930695 378.4080063320331 713.4353388930695 379.10646491990417L713.4353388930695 379.10646491990417Q713.4353388930695 379.80492350777524 711.7012348128378 382.04480794474114L711.7012348128378 382.04480794474114Q708.7628917880008 385.5130161052044 703.8255121151192 389.8482763057835Q698.8881324422373 394.18353650636254 693.4931419704055 397.14596431009164L693.4931419704055 397.14596431009164Q682.4141436800369 403.0226503597655 669.047091394918 406.8521302036104Q655.7041238886911 410.6575252685631 643.396801874825 410.6575252685631ZM732.0047034188831 404.5881609877524L732.0047034188831 404.5881609877524Q729.042275615154 404.5881609877524 727.4045106504909 402.5891243397076Q725.7667456858278 400.6141724705549 725.7667456858278 397.8203381190706L725.7667456858278 397.8203381190706Q725.7667456858278 395.2191819987231 726.9709846304329 392.8107041095125L726.9709846304329 392.8107041095125Q728.8736821629093 388.8126308134229 731.9083643033148 384.91089663290177Q734.94304644372 381.00916245238056 737.5442025640675 378.0708194275436L737.5442025640675 378.0708194275436Q739.2783066442992 375.8068502116856 739.2783066442992 374.24133958369873L739.2783066442992 374.24133958369873Q739.2783066442992 372.17004859897764 736.6771505239517 370.0746728353644L736.6771505239517 370.0746728353644Q734.6058595392306 368.70184043851435 732.8717554589989 366.4378712226564L732.8717554589989 366.4378712226564Q731.6434317355015 364.7037671424248 731.1376513787673 362.96966306219315L731.1376513787673 362.96966306219315Q728.3679018061753 368.70184043851435 724.1048959422724 376.24037623174354Q719.8659748572618 383.7789120249728 715.3621212044379 389.67968285353874L715.3621212044379 389.67968285353874Q714.6636626165669 390.7153283458993 713.9652040286958 390.7153283458993L713.9652040286958 390.7153283458993Q713.4353388930695 390.7153283458993 713.4353388930695 390.01686975802824L713.4353388930695 390.01686975802824Q713.4353388930695 389.67968285353874 713.6280171242063 389.34249594904924Q713.796610576451 388.98122426566766 714.6636626165669 387.77698532106234L714.6636626165669 387.77698532106234Q719.1675162693907 381.5390275880069 721.9372658419829 376.1440371161751Q724.7070154145749 370.7731314232355 726.8023911781884 366.10068431816694L726.8023911781884 366.10068431816694L730.6077862431409 357.59875736925346Q730.7763796953857 357.26157046476396 731.041312263199 356.6353662135692Q731.306244831012 356.03324674126657 731.4748382832568 355.8646532890218L731.4748382832568 355.8646532890218Q731.8361099666383 355.5274663845324 732.1732968711278 355.5274663845324L732.1732968711278 355.5274663845324Q732.8717554589989 355.5274663845324 733.2089423634884 356.2018401935113Q733.57021404687 356.9002987813824 733.2089423634884 357.93594427374296L733.2089423634884 357.93594427374296Q732.8717554589989 359.86272658511143 733.7388074991147 361.7654241175878Q734.6058595392306 363.6681216500642 735.9786919360806 365.2336322780511L735.9786919360806 365.2336322780511Q737.3756091118228 366.60646467490113 739.9767652321702 367.8347883983986Q742.5779213525177 369.03902734300385 744.6492123372389 370.60453797099075Q746.7445881008521 372.17004859897764 746.2147229652257 374.60261126708036L746.2147229652257 374.60261126708036Q745.5162643773547 377.8781411964068 742.5779213525177 381.00916245238056Q739.6395783276807 384.14018370835436 736.6771505239517 387.60839186881765L736.6771505239517 387.60839186881765Q734.6058595392306 389.8482763057835 732.9440097956754 392.11224552164146Q731.306244831012 394.3521299586073 730.4391927908962 396.78469262671L730.4391927908962 396.78469262671Q730.2705993386514 397.31455776233634 730.1742602230831 397.8203381190706Q730.1020058864067 398.3502032546969 730.1020058864067 398.88006839032323L730.1020058864067 398.88006839032323Q730.1020058864067 401.98700486740495 733.3775358157332 401.98700486740495L733.3775358157332 401.98700486740495Q734.4372660869858 401.98700486740495 735.9786919360806 401.4812245106707L735.9786919360806 401.4812245106707Q740.3139521366597 399.9157138826838 744.0470928649363 396.27891226997576Q747.7802335932126 392.61802587837565 750.4777288291284 388.98122426566766Q753.1511392861523 385.3444226529597 754.0181913262682 383.94750547721753L754.0181913262682 383.94750547721753Q755.4151085020103 381.8762144924964 755.7522954064998 381.8762144924964L755.7522954064998 381.8762144924964Q756.2821605421261 381.8762144924964 756.2821605421261 382.7432665326122L756.2821605421261 382.7432665326122Q756.2821605421261 383.61031857272803 755.7522954064998 384.47737061284386L755.7522954064998 384.47737061284386Q751.946900341547 390.54673489365456 747.0817750053416 395.9176405865942Q742.2407344480282 401.2885462795339 736.6771505239517 403.55251549539184L736.6771505239517 403.55251549539184Q734.0759944036042 404.5881609877524 732.0047034188831 404.5881609877524ZM782.6309086500901 404.7567544399971L782.6309086500901 404.7567544399971Q779.5239721730084 404.7567544399971 778.0307158816979 402.685463455276Q776.5615443692793 400.6141724705549 776.5615443692793 397.31455776233634L776.5615443692793 397.31455776233634Q776.5615443692793 395.05058854647837 777.0914095049056 392.8107041095125L777.0914095049056 392.8107041095125Q777.2600029571504 392.44943242613095 777.5971898616399 391.1488543659572Q777.9584615450215 389.8482763057835 778.6569201328925 388.11417222555184L778.6569201328925 388.11417222555184Q776.2243574647898 391.9436520693967 772.4912167365135 396.51976005889685Q768.7580760082369 401.1199528272891 764.2542223554133 403.3839220431471L764.2542223554133 403.3839220431471Q761.6530662350658 404.5881609877524 759.0519101147183 404.5881609877524L759.0519101147183 404.5881609877524Q755.583701954255 404.5881609877524 753.5124109695339 401.9147505307286Q751.4170352059207 399.21725529481273 751.4170352059207 394.3521299586073L751.4170352059207 394.3521299586073Q751.4170352059207 390.3781414414098 753.1511392861523 385.7779486730176Q754.885243366384 381.1777559046253 758.1848580746025 376.33671534731195L758.1848580746025 376.33671534731195Q760.2561490593237 373.2056940913382 763.5557637675422 370.26735106650125Q766.8553784757605 367.3049232627722 770.6607735407133 365.40222573029587Q774.4902533845582 363.4995281978195 777.9584615450215 363.4995281978195L777.9584615450215 363.4995281978195Q781.4266697054848 363.4995281978195 783.8592323735875 365.40222573029587Q786.2677102627981 367.3049232627722 786.4603884939349 371.13440310661707L786.4603884939349 371.13440310661707Q786.4603884939349 371.6401834633513 786.0268624738771 371.9051160311645Q785.5933364538191 372.17004859897764 785.2320647704375 371.47159001110657L785.2320647704375 371.47159001110657Q783.1607737857164 366.799142906038 778.4642419017557 366.799142906038L778.4642419017557 366.799142906038Q775.357305424674 366.799142906038 771.8890972642107 369.6411468153065Q768.4208891037474 372.50723550346714 765.1212743955291 376.8424957040462Q761.8216596873106 381.1777559046253 759.3890970192078 385.5130161052044L759.3890970192078 385.5130161052044Q757.3178060344867 389.34249594904924 756.3544148788023 392.44943242613095Q755.4151085020103 395.5804536821047 755.4151085020103 397.8203381190706L755.4151085020103 397.8203381190706Q755.4151085020103 402.5168700030313 759.0519101147183 402.5168700030313L759.0519101147183 402.5168700030313Q760.9546076471947 402.5168700030313 763.2185768630527 401.2885462795339L763.2185768630527 401.2885462795339Q765.2898678477738 400.08430733492855 768.3245499881791 396.95328607895476Q771.3592321285844 393.8463496018731 774.3939142689899 390.01686975802824Q777.4285964093951 386.21147469307544 779.9574981930664 382.57467308036746Q782.4623151978453 378.9378714676594 783.6665541424507 376.8424957040462L783.6665541424507 376.8424957040462Q786.2677102627981 372.50723550346714 789.0615446142824 369.2076207952486Q791.8312941868746 365.9320908659222 794.6010437594668 365.9320908659222L794.6010437594668 365.9320908659222Q795.997960935209 365.9320908659222 795.997960935209 366.60646467490113L795.997960935209 366.60646467490113Q795.997960935209 367.3049232627722 795.2995023473379 368.0033818506433L795.2995023473379 368.0033818506433Q791.8312941868746 372.17004859897764 788.7966120464691 377.80588685973044Q785.7619299060639 383.4417251204833 783.7628932580192 388.4754439089334Q781.7638566099743 393.48507791849147 781.4266697054848 396.08623403883894L781.4266697054848 396.08623403883894Q780.8968045698584 401.64981796291545 784.7262844137033 401.64981796291545L784.7262844137033 401.64981796291545Q785.2320647704375 401.64981796291545 785.7619299060639 401.55347884734704Q786.2677102627981 401.4812245106707 786.9661688506692 401.2885462795339L786.9661688506692 401.2885462795339Q790.6029704633772 400.08430733492855 794.0711786238405 396.78469262671Q797.5393867843038 393.48507791849147 800.5018145880329 389.5833437379703Q803.4401576128698 385.6816095574491 805.342855145346 382.7432665326122L805.342855145346 382.7432665326122Q805.8727202809723 382.04480794474114 806.2099071854618 382.04480794474114L806.2099071854618 382.04480794474114Q806.7397723210881 382.04480794474114 806.7397723210881 382.91185998485696L806.7397723210881 382.91185998485696Q806.7397723210881 383.4417251204833 806.2099071854618 384.3087771605991L806.2099071854618 384.3087771605991Q805.0056682408565 386.04288124083075 803.9700227484961 387.68064620549393Q802.9343772561356 389.34249594904924 801.8746469848829 390.7153283458993L801.8746469848829 390.7153283458993Q801.5374600803934 391.4137869337704 801.0075949447671 391.9436520693967Q800.5018145880329 392.44943242613095 799.9719494524065 393.147891014002L799.9719494524065 393.147891014002Q797.7320650154406 395.9176405865942 794.1675177394088 399.1209161792443Q790.6029704633772 402.3482765507865 787.1347623029139 403.7211089476366L787.1347623029139 403.7211089476366Q784.5336061825665 404.7567544399971 782.6309086500901 404.7567544399971ZM813.6761886420147 404.41956753550767L813.6761886420147 404.41956753550767Q811.7734911095383 404.41956753550767 810.3765739337962 403.55251549539184L810.3765739337962 403.55251549539184Q808.305282949075 402.5168700030313 807.4382309089592 399.74712043043905Q806.5711788688434 396.95328607895476 806.5711788688434 393.67775614962835L806.5711788688434 393.67775614962835Q806.5711788688434 390.3781414414098 807.1732983411462 387.2471201854361Q807.7754178134487 384.14018370835436 808.4738764013198 382.04480794474114L808.4738764013198 382.04480794474114Q808.6424698535645 381.5390275880069 808.8110633058093 381.105501567949Q809.0037415369461 380.67197554789107 809.1723349891909 380.14211041226474L809.1723349891909 380.14211041226474Q807.606824361204 382.4060796281227 806.4025854165989 384.14018370835436Q805.1742616931015 385.87428778858595 804.668481336367 386.54866159756494L804.668481336367 386.54866159756494Q804.4758031052302 386.9099332809466 803.9700227484961 386.9099332809466L803.9700227484961 386.9099332809466Q803.4401576128698 386.9099332809466 803.1752250450565 386.4764072608886Q802.9343772561356 386.04288124083075 803.4401576128698 385.5130161052044L803.4401576128698 385.5130161052044Q804.1386162007409 384.47737061284386 805.776381165404 381.9725536080648Q807.4382309089592 379.44365182439367 809.5095218936804 376.4089696839883Q811.6048976572936 373.3742875435829 812.9777300541436 371.3029965588618L812.9777300541436 371.3029965588618Q815.5788861744911 367.47351671501696 820.082739827315 367.47351671501696L820.082739827315 367.47351671501696L820.6126049629413 367.47351671501696Q821.1424700985676 367.47351671501696 821.1424700985676 367.8347883983986L821.1424700985676 367.8347883983986Q821.1424700985676 368.0033818506433 820.2754180584518 369.4002990263854L820.2754180584518 369.4002990263854Q818.5413139782202 371.808776915596 816.1810056467939 376.33671534731195Q813.8447820942595 380.8405690001358 812.2070171295964 385.9465421252623Q810.5451673860409 391.0766000292809 810.5451673860409 395.41186022986L810.5451673860409 395.41186022986Q810.5451673860409 398.88006839032323 812.1106780140278 401.2885462795339L812.1106780140278 401.2885462795339Q812.8091366018989 402.3482765507865 814.3746472298858 402.3482765507865L814.3746472298858 402.3482765507865Q815.9401578578727 402.3482765507865 817.9151097270255 401.1199528272891Q819.9141463750702 399.9157138826838 821.4796570030571 398.51879670694166L821.4796570030571 398.51879670694166Q825.2850520680099 395.41186022986 829.0181927962863 390.3781414414098Q832.7513335245628 385.3444226529597 835.2561505293418 379.6122452766384Q837.785052313013 373.9041526792093 837.785052313013 368.70184043851435L837.785052313013 368.70184043851435Q837.785052313013 365.9320908659222 836.9180002728972 364.00530855455366Q836.0509482327814 362.1026110220773 834.148250700305 361.7654241175878L834.148250700305 361.7654241175878Q833.4497921124339 361.7654241175878 833.4497921124339 361.06696552971675L833.4497921124339 361.06696552971675Q833.4497921124339 360.0313200373562 834.822624509284 360.0313200373562L834.822624509284 360.0313200373562Q838.2908326697473 360.0313200373562 840.289869317792 362.8974087255168Q842.2889059658369 365.7394126347853 842.2889059658369 370.26735106650125L842.2889059658369 370.26735106650125Q842.2889059658369 372.67582895571184 841.5904473779658 375.4696633071962Q840.8919887900947 378.23941287978835 839.5191563932447 381.00916245238056L839.5191563932447 381.00916245238056Q837.2551871773867 385.3444226529597 833.6183855646786 390.45039577808615Q829.9815839519706 395.5804536821047 825.2850520680099 399.4821878626259Q820.6126049629413 403.3839220431471 815.2416992700016 404.2509740832629L815.2416992700016 404.2509740832629Q814.7118341343753 404.41956753550767 813.6761886420147 404.41956753550767ZM866.0364979534534 353.6006840731639L866.0364979534534 353.6006840731639Q863.6280200642427 353.6006840731639 863.0981549286164 350.66234104832694L863.0981549286164 350.66234104832694Q862.9295614763716 349.2654238725848 864.832259008848 347.8925914757347Q866.7349565413244 346.4956742999926 867.9632802648218 345.9898939432584L867.9632802648218 345.9898939432584Q868.8303323049377 345.62862225987675 869.3361126616719 345.46002880763206Q869.8659777972982 345.2914353553873 870.2031647017877 345.2914353553873L870.2031647017877 345.2914353553873Q871.4314884252851 345.2914353553873 871.4314884252851 346.4956742999926L871.4314884252851 346.4956742999926Q871.4314884252851 347.8925914757347 870.4680972696008 349.7952890082111Q869.5047061139167 351.6979865406875 869.5047061139167 351.6979865406875L869.5047061139167 351.6979865406875Q869.3361126616719 352.3964451285586 868.3004671693113 352.99856460086124Q867.2648216769508 353.6006840731639 866.0364979534534 353.6006840731639ZM848.6954571511369 404.7567544399971L848.6954571511369 404.7567544399971Q845.5885206740554 404.7567544399971 844.1916034983133 402.685463455276Q842.818771101463 400.6141724705549 842.818771101463 397.4831512145811L842.818771101463 397.4831512145811Q842.818771101463 395.05058854647837 843.3245514581974 392.8107041095125L843.3245514581974 392.8107041095125Q843.6858231415788 391.7509738382598 845.1549946539974 387.60839186881765Q846.624166166416 383.4417251204833 849.1289831711949 378.4080063320331Q851.657884954866 373.3742875435829 854.5962279797029 369.6411468153065Q857.558655783432 365.9320908659222 860.6655922605137 365.9320908659222L860.6655922605137 365.9320908659222Q862.0625094362558 365.9320908659222 862.0625094362558 366.60646467490113L862.0625094362558 366.60646467490113Q862.0625094362558 367.3049232627722 861.3640508483847 368.0033818506433L861.3640508483847 368.0033818506433Q857.8958426879215 372.17004859897764 854.8611605475162 377.80588685973044Q851.8264784071107 383.4417251204833 849.827441759066 388.4754439089334Q847.8284051110211 393.48507791849147 847.4912182065316 396.08623403883894L847.4912182065316 396.08623403883894Q846.9613530709053 401.64981796291545 850.7908329147501 401.64981796291545L850.7908329147501 401.64981796291545Q851.2966132714844 401.64981796291545 851.8264784071107 401.55347884734704Q852.356343542737 401.4812245106707 853.030717351716 401.2885462795339L853.030717351716 401.2885462795339Q856.6916037433161 400.08430733492855 860.1598119037794 396.78469262671Q863.6280200642427 393.48507791849147 866.5663630890797 389.511089401294Q869.5047061139167 385.5130161052044 871.4314884252851 382.57467308036746L871.4314884252851 382.57467308036746Q872.1058622342641 381.8762144924964 872.298540465401 381.8762144924964L872.298540465401 381.8762144924964Q872.8043208221352 381.8762144924964 872.8043208221352 382.7432665326122L872.8043208221352 382.7432665326122Q872.8043208221352 383.61031857272803 872.298540465401 384.47737061284386L872.298540465401 384.47737061284386Q868.4690606215561 390.3781414414098 863.3630874964297 396.08623403883894Q858.233029592411 401.8184114151602 853.2233955828528 403.7211089476366L853.2233955828528 403.7211089476366Q850.6222394625054 404.7567544399971 848.6954571511369 404.7567544399971ZM869.6973843450535 404.2509740832629L869.6973843450535 404.2509740832629Q869.1675192094272 404.2509740832629 868.6376540738008 403.55251549539184L868.6376540738008 403.55251549539184Q867.2648216769508 401.98700486740495 867.2648216769508 398.51879670694166L867.2648216769508 398.51879670694166Q867.2648216769508 394.8819950942336 868.5653997371244 390.2818023258414Q869.8659777972982 385.6816095574491 871.6000818775299 381.8762144924964L871.6000818775299 381.8762144924964Q873.3341859577615 378.23941287978835 874.8033574701799 375.4696633071962Q876.2725289825985 372.67582895571184 876.8023941182248 372.0014551467329L876.8023941182248 372.0014551467329Q878.7050916507012 369.5688924786302 880.7763826354224 368.0033818506433Q882.8717583990356 366.4378712226564 884.9430493837567 366.4378712226564L884.9430493837567 366.4378712226564Q885.9786948761171 366.4378712226564 886.6048991273119 366.96773635828276Q887.2070185996147 367.47351671501696 886.6771534639884 367.8347883983986L886.6771534639884 367.8347883983986Q885.3043210671383 368.53324698626966 883.0403518512803 371.567929126675Q880.7763826354224 374.60261126708036 878.3679047462117 378.57659978427785L878.3679047462117 378.57659978427785Q876.8023941182248 381.34634935687006 874.3698314501221 386.04288124083075Q871.9372687820194 390.7153283458993 871.6000818775299 394.0149430541178L871.6000818775299 394.0149430541178Q871.6000818775299 395.41186022986 872.298540465401 395.2191819987231L872.298540465401 395.2191819987231L876.6338006659801 388.11417222555184Q880.2706022786881 382.04480794474114 886.1713731072541 376.1440371161751Q892.0480591569278 370.26735106650125 898.8158820256097 366.4378712226564L898.8158820256097 366.4378712226564Q899.5143406134807 366.10068431816694 900.2850535380283 365.9320908659222Q901.0798512414676 365.7394126347853 901.7783098293387 365.7394126347853L901.7783098293387 365.7394126347853Q903.3197356784335 365.7394126347853 903.3197356784335 366.799142906038L903.3197356784335 366.799142906038Q903.3197356784335 367.1363298105275 902.4526836383177 368.53324698626966L902.4526836383177 368.53324698626966Q898.8158820256097 373.3742875435829 896.7445910408885 378.67293889984626Q894.6492152772753 383.94750547721753 894.143434920541 390.20954798916506L894.143434920541 390.20954798916506Q893.9748414682965 394.0149430541178 894.9141478450886 397.2182186467679Q895.8775390007727 400.42149423941805 899.1771537089912 400.42149423941805L899.1771537089912 400.42149423941805Q902.982548773944 400.42149423941805 906.4507569344073 397.31455776233634Q909.9189650948706 394.18353650636254 912.9536472352759 389.9446154213519Q915.9883293756814 385.6816095574491 918.2522985915393 382.4060796281227L918.2522985915393 382.4060796281227Q918.5894854960288 381.8762144924964 918.7580789482736 381.8762144924964L918.7580789482736 381.8762144924964Q919.2879440838999 381.8762144924964 919.2879440838999 382.91185998485696L919.2879440838999 382.91185998485696Q919.2879440838999 383.7789120249728 918.5894854960288 385.0072357484702L918.5894854960288 385.0072357484702Q915.9883293756814 388.8126308134229 912.8573081197076 393.147891014002Q909.7503716426259 397.4831512145811 906.0172309143495 400.42149423941805Q902.284090186073 403.3839220431471 897.6116430810043 403.3839220431471L897.6116430810043 403.3839220431471Q893.2763828804252 403.3839220431471 891.3736853479488 400.08430733492855Q889.4469030365804 396.78469262671 889.4469030365804 392.11224552164146L889.4469030365804 392.11224552164146Q889.4469030365804 387.07852673319127 891.1087527801358 381.34634935687006Q892.7465177447989 375.6382567594409 895.0104869606569 371.808776915596L895.0104869606569 371.808776915596Q890.506633307833 375.10839162381455 885.6415079716278 380.04577129669633Q880.7763826354224 385.0072357484702 877.3081744749591 390.54673489365456L877.3081744749591 390.54673489365456Q876.1039355303537 392.8107041095125 874.0326445456326 396.27891226997576Q871.9372687820194 399.74712043043905 871.2388101941483 401.8184114151602L871.2388101941483 401.8184114151602Q871.0702167419036 402.5168700030313 870.9016232896588 402.9503960230892Q870.733029837414 403.3839220431471 870.5644363851693 403.7211089476366L870.5644363851693 403.7211089476366Q870.3717581540325 404.2509740832629 869.6973843450535 404.2509740832629ZM911.6530691751022 452.63729487750396L911.6530691751022 452.63729487750396Q906.7879438388968 452.63729487750396 904.7166528541757 449.3376801692854L904.7166528541757 449.3376801692854Q903.6810073618151 447.4349826368091 903.6810073618151 445.33960687319586L903.6810073618151 445.33960687319586Q903.6810073618151 443.09972243622997 904.5480594019309 440.7394141048036Q905.4151114420467 438.4031905522693 906.7879438388968 435.97062788416656L906.7879438388968 435.97062788416656Q909.2205065069995 431.9966393669691 912.5201212152181 428.1671595231242Q915.8197359234366 424.3617644581715 919.0230115160866 421.2307432021977Q922.2262871087369 418.12380672511597 924.3216628723501 416.3897026448843L924.3216628723501 416.3897026448843Q927.9584644850581 413.4272748411553 932.8958441579398 409.4532863239578Q937.8332238308215 405.4552130278682 943.0355360715164 402.685463455276L943.0355360715164 402.685463455276Q943.396807754898 402.5168700030313 943.7339946593875 402.5168700030313L943.7339946593875 402.5168700030313Q944.2638597950138 402.5168700030313 944.2638597950138 403.0226503597655L944.2638597950138 403.0226503597655Q944.2638597950138 404.08238063101817 943.396807754898 404.41956753550767L943.396807754898 404.41956753550767Q941.13283853904 405.62380648011293 937.6646303785767 408.15270826378406Q934.1964222181134 410.6575252685631 930.8968075098949 413.355020504479Q927.5971928016763 416.02843096150275 925.1887149124659 418.12380672511597L925.1887149124659 418.12380672511597Q923.4546108322343 419.68931735310287 920.4921830285052 422.7962538301846Q917.5538400036683 425.9272750861584 914.5191578632628 429.8290092666795Q911.4844757228575 433.73074344720067 909.3890999592443 437.7047319643982L909.3890999592443 437.7047319643982Q908.7147261502653 439.10164914014035 907.8476741101495 441.43787269267466Q906.9806220700336 443.77409624520897 906.9806220700336 445.8694720088222L906.9806220700336 445.8694720088222Q906.9806220700336 447.60357608905383 907.9199284468259 448.7355606969828Q908.88331960251 449.8434605260196 911.1232040394759 449.8434605260196L911.1232040394759 449.8434605260196Q914.784090431076 449.8434605260196 918.4931463804603 447.3386435212406Q922.2262871087369 444.8338265164616 925.6222409325237 441.1729401248615Q928.9941099774187 437.53613851215346 931.7638595500107 433.802997783877Q934.5336091226029 430.0939418344927 936.0991197505898 427.3001074830084L936.0991197505898 427.3001074830084Q942.3370774836453 417.0881612327554 945.9016247596771 404.68450010332083Q949.4661720357087 392.2808389738862 948.5991199955929 381.5390275880069L948.5991199955929 381.5390275880069Q948.4064417644561 380.3107038645095 948.2378483122113 379.1787192565805Q948.0692548599666 378.0708194275436 947.7320679554771 376.8424957040462L947.7320679554771 376.8424957040462Q947.3707962720955 377.3723608396725 947.033609367606 377.8781411964068Q946.6723376842244 378.4080063320331 946.1665573274902 379.10646491990417L946.1665573274902 379.10646491990417Q944.9382336039928 381.70762104025164 942.8669426192716 384.91089663290177Q940.7956516345505 388.11417222555184 938.9652084387506 390.7153283458993Q937.1347652429504 393.3164844662467 936.4603914339714 394.18353650636254L936.4603914339714 394.18353650636254Q932.293724685637 399.21725529481273 928.7291774096054 401.4812245106707Q925.1887149124659 403.7211089476366 922.5875587921184 403.7211089476366L922.5875587921184 403.7211089476366Q919.1193506316552 403.7211089476366 917.1925683202867 400.6864268072312Q915.2898707878103 397.65174466682583 915.2898707878103 393.3164844662467L915.2898707878103 393.3164844662467Q915.2898707878103 385.3444226529597 921.359235068621 375.6382567594409L921.359235068621 375.6382567594409Q924.3216628723501 371.13440310661707 929.523975113045 367.2326689260959Q934.72628735374 363.3309347455747 939.7359213632978 363.3309347455747L939.7359213632978 363.3309347455747Q943.9025881116322 363.3309347455747 946.8650159153613 366.799142906038L946.8650159153613 366.799142906038Q947.3707962720955 367.47351671501696 947.1058637042822 368.4369078707012Q946.8650159153613 369.4002990263854 946.1665573274902 368.70184043851435L946.1665573274902 368.70184043851435Q945.4680987396191 367.66619494615384 943.9989272272007 367.3049232627722Q942.5297557147821 366.96773635828276 941.13283853904 366.96773635828276L941.13283853904 366.96773635828276Q936.7975783384609 366.96773635828276 933.1607767257528 370.0024184986881Q929.523975113045 373.03710063909347 926.826479877129 377.10742827185936Q924.1289846412133 381.1777559046253 922.3948805609816 384.6459640650886L922.3948805609816 384.6459640650886Q918.5894854960288 392.2808389738862 918.5894854960288 396.78469262671L918.5894854960288 396.78469262671Q918.5894854960288 401.4812245106707 922.0576936564921 401.4812245106707L922.0576936564921 401.4812245106707Q924.3216628723501 401.4812245106707 927.5249384650001 399.31359441038114Q930.7282140576503 397.14596431009164 934.5336091226029 392.2808389738862L934.5336091226029 392.2808389738862Q935.4006611627187 391.24519348152563 937.496036926332 388.379104793365Q939.5673279110531 385.5130161052044 941.9998905791558 381.5390275880069Q944.4324532472585 377.5409542919173 946.1665573274902 373.73555922696454L946.1665573274902 373.73555922696454Q946.1665573274902 373.54288099582766 946.2388116641666 373.54288099582766Q946.3351507797349 373.54288099582766 946.3351507797349 373.3742875435829L946.3351507797349 373.3742875435829Q946.1665573274902 373.2056940913382 945.8052856441086 372.50723550346714L945.8052856441086 372.50723550346714L945.8052856441086 372.3386420512224Q945.8052856441086 371.6401834633513 947.3707962720955 371.6401834633513L947.3707962720955 371.6401834633513Q948.7677134478377 371.6401834633513 949.4661720357087 372.3386420512224L949.4661720357087 372.3386420512224Q951.5374630204299 374.072746131454 952.500854176114 377.6372934074857Q953.4401605529063 381.1777559046253 953.4401605529063 385.6816095574491L953.4401605529063 385.6816095574491Q953.4401605529063 391.58238038601513 952.0673281560562 398.4465423702653Q950.670410980314 405.2866195756235 948.5027808800244 411.69317076092364Q946.3351507797349 418.12380672511597 943.5654012071427 423.15752551356616L943.5654012071427 423.15752551356616Q940.4343799511689 429.39548324662167 936.1954588661583 435.19991495961915Q931.9324530022554 441.00434667261675 927.1636667816185 445.33960687319586Q922.3948805609816 449.6748670737749 917.722433455913 451.4089711540065L917.722433455913 451.4089711540065Q914.5914121999392 452.63729487750396 911.6530691751022 452.63729487750396ZM1022.6357303099269 405.8164847112498L1022.6357303099269 405.8164847112498Q1015.0008554011292 405.8164847112498 1007.7272521757134 404.41956753550767L1007.7272521757134 404.41956753550767Q1003.8977723318685 403.55251549539184 1001.3929553270893 402.3482765507865Q998.8881383223104 401.1199528272891 996.9613560109419 400.42149423941805L996.9613560109419 400.42149423941805Q994.5528781217313 399.21725529481273 994.5528781217313 397.65174466682583L994.5528781217313 397.65174466682583Q994.5528781217313 396.95328607895476 995.5885236140919 396.95328607895476L995.5885236140919 396.95328607895476Q995.9257105185814 396.95328607895476 996.2869822019629 396.95328607895476Q996.6241691064524 396.95328607895476 997.1540342420788 397.31455776233634L997.1540342420788 397.31455776233634Q999.7551903624262 398.3502032546969 1002.6935333872632 399.55444219930223Q1005.6318764120999 400.7827659227996 1008.7628976680737 401.1199528272891L1008.7628976680737 401.1199528272891Q1010.1598148438161 401.2885462795339 1012.3996992807818 401.4812245106707Q1014.6636684966397 401.64981796291545 1017.0962311647424 401.64981796291545L1017.0962311647424 401.64981796291545Q1021.7686782698111 401.64981796291545 1026.8023970582612 400.85502025947596Q1031.8361158467114 400.08430733492855 1035.3043240071747 398.08527068688375Q1038.772532167638 396.08623403883894 1038.772532167638 392.2808389738862L1038.772532167638 392.2808389738862Q1038.772532167638 390.20954798916506 1035.9786978161537 387.07852673319127Q1033.2089482435615 383.94750547721753 1028.8736880429824 379.8771778444516Q1024.5384278424033 375.8068502116856 1019.9382350740111 370.94172487548025Q1015.3621270845108 366.10068431816694 1011.8939189240475 360.72977862522725L1011.8939189240475 360.72977862522725Q1008.7628976680737 355.6960598367771 1006.5952675677843 350.0602215760243Q1004.4276374674948 344.4243833152715 1004.4276374674948 338.5236124867055L1004.4276374674948 338.5236124867055Q1004.4276374674948 329.15463349767623 1008.8592367836422 322.3868106289944Q1013.2667513208976 315.64307253920475 1020.6366936618822 311.30781233862564Q1028.0066360028666 306.9725521380466 1036.6049020673483 304.804922037757Q1045.179083352938 302.63729193746747 1053.512416849607 302.63729193746747L1053.512416849607 302.63729193746747Q1057.654998819049 302.63729193746747 1061.3158852106492 303.1430722942017L1061.3158852106492 303.1430722942017Q1065.9883323157178 303.67293742982804 1071.4555771242258 305.479295846736Q1076.922821932734 307.309739042536 1080.824556113255 310.94654065524406Q1084.7262902937764 314.5833422679521 1084.7262902937764 320.65270654876275L1084.7262902937764 320.65270654876275Q1084.7262902937764 327.0833425129551 1080.7282169976868 332.9841133415211Q1076.7301437015972 338.860799391195 1070.9257119885995 343.2923987073425Q1065.121280275602 347.72399802349 1059.5817811304175 349.96388246045586L1059.5817811304175 349.96388246045586Q1058.522050859165 350.32515414383744 1057.847677050186 350.32515414383744L1057.847677050186 350.32515414383744Q1056.6193533266885 350.32515414383744 1056.6193533266885 349.7952890082111L1056.6193533266885 349.7952890082111Q1056.6193533266885 349.4581021037216 1057.4864053668043 348.8318978525269Q1058.3534574069201 348.2297783802242 1058.522050859165 348.06118492797947L1058.522050859165 348.06118492797947Q1062.5201241552545 344.9301636720057 1066.2532648835308 342.4253466672267Q1069.9864056118074 339.9205296624476 1072.9247486366444 336.4523215019844L1072.9247486366444 336.4523215019844Q1076.3929567971077 332.45424820589477 1078.0307217617708 328.7211074776183Q1079.6925715053262 324.98796674934187 1079.6925715053262 321.71243682001545L1079.6925715053262 321.71243682001545Q1079.6925715053262 316.148852895939 1075.0923787369338 312.3434578309862Q1070.4921859685417 308.51397798714135 1061.8216655673834 307.4783324947808L1061.8216655673834 307.4783324947808Q1060.2561549393965 307.309739042536 1058.7147290903017 307.2133999269676Q1057.1492184623148 307.14114559029133 1055.583707834328 307.14114559029133L1055.583707834328 307.14114559029133Q1047.443052568796 307.14114559029133 1039.1097190721275 309.4773691428256Q1030.7763855754588 311.8135926953599 1023.8399692545322 316.2451920115074Q1016.9035529336056 320.65270654876275 1012.664631848595 326.7220708295735Q1008.4257107635844 332.79143511038427 1008.4257107635844 340.42631001918187L1008.4257107635844 340.42631001918187Q1008.4257107635844 349.2654238725848 1015.0008554011292 358.9956745449956L1015.0008554011292 358.9956745449956Q1018.6376570138373 364.19798678569055 1023.6713758022875 369.03902734300385Q1028.7050945907376 373.9041526792093 1033.6424742636193 378.3116672164647Q1038.5798539365012 382.7432665326122 1041.8072143080433 386.74133982870177Q1045.0104899006935 390.7153283458993 1045.0104899006935 394.18353650636254L1045.0104899006935 394.18353650636254Q1045.0104899006935 398.51879670694166 1041.8072143080433 401.1199528272891Q1038.5798539365012 403.7211089476366 1033.4738808113748 404.7567544399971Q1028.3679076862481 405.8164847112498 1022.6357303099269 405.8164847112498ZM1070.6607794207864 404.2509740832629L1070.6607794207864 404.2509740832629Q1065.9883323157178 404.2509740832629 1062.5201241552545 401.9147505307286Q1059.0519159947912 399.55444219930223 1059.0519159947912 393.48507791849147L1059.0519159947912 393.48507791849147Q1059.0519159947912 389.67968285353874 1060.9546135272676 385.0794900851465Q1062.857311059744 380.47929731675424 1065.8919932001493 376.0717827794988Q1068.9266753405548 371.6401834633513 1072.5875617321549 368.70184043851435L1072.5875617321549 368.70184043851435Q1073.4546137722707 368.0033818506433 1074.8274461691208 368.0033818506433L1074.8274461691208 368.0033818506433Q1076.922821932734 365.9320908659222 1079.5962323897577 364.8723605946695Q1082.2937276256735 363.836715102309 1084.7262902937764 363.836715102309L1084.7262902937764 363.836715102309Q1089.0615504943553 363.836715102309 1092.7706064437398 366.60646467490113Q1096.5037471720161 369.4002990263854 1096.5037471720161 375.4696633071962L1096.5037471720161 375.4696633071962Q1096.5037471720161 378.9378714676594 1094.6010496395397 383.7789120249728L1094.6010496395397 383.7789120249728Q1092.866945559308 388.2827656777966 1089.2301439466 393.05155189843356Q1085.593342333892 397.8203381190706 1080.824556113255 401.0476984906128Q1076.0557698926182 404.2509740832629 1070.6607794207864 404.2509740832629ZM1070.4921859685417 402.1555983196497L1070.4921859685417 402.1555983196497Q1074.3216658123865 402.1555983196497 1078.3919934451524 399.21725529481273Q1082.4623210779184 396.27891226997576 1085.9305292383815 391.67871950158354Q1089.3987373988448 387.07852673319127 1090.9642480268317 382.4060796281227L1090.9642480268317 382.4060796281227Q1092.6983521070633 377.709547744162 1092.6983521070633 374.072746131454L1092.6983521070633 374.072746131454Q1092.6983521070633 369.5688924786302 1090.2657894389606 367.5698558305854Q1087.833226770858 365.57081918254056 1084.8948837460212 365.57081918254056L1084.8948837460212 365.57081918254056Q1080.1983518620605 365.57081918254056 1076.7301437015972 368.70184043851435L1076.7301437015972 368.70184043851435Q1078.4642477818288 369.7374859308749 1077.0914153849787 370.7731314232355L1077.0914153849787 370.7731314232355Q1074.658852716876 372.8685071868487 1071.6241705764705 376.5053087995567Q1068.5894884360653 380.14211041226474 1066.8553843558336 383.27313166823853L1066.8553843558336 383.27313166823853Q1065.6511454112283 385.3444226529597 1064.687754255544 388.64403736117816Q1063.7243630998598 391.9436520693967 1063.7243630998598 394.8819950942336L1063.7243630998598 394.8819950942336Q1063.7243630998598 397.8203381190706 1065.2176193911705 399.98796821936014Q1066.6867909035889 402.1555983196497 1070.4921859685417 402.1555983196497ZM1112.9777359342168 404.949432671134L1112.9777359342168 404.949432671134Q1108.8110691858824 404.949432671134 1106.4025912966717 402.2519374352181Q1103.970028628569 399.55444219930223 1103.1029765884532 395.41186022986Q1102.2359245483374 391.24519348152563 1102.4045180005821 386.9099332809466L1102.4045180005821 386.9099332809466Q1102.9343831362085 379.44365182439367 1105.7041327088007 369.9060793831197Q1108.473882281393 360.3685069418457 1112.9054815975403 350.3974084805138Q1117.3129961347959 340.42631001918187 1122.7802409433039 331.58719616577895Q1128.247485751812 322.748082312376 1134.3168500326226 316.3174463481837Q1140.3862143134334 309.9108951628835 1146.2869851419994 307.4783324947808L1146.2869851419994 307.4783324947808Q1148.1896826744758 306.61128045466495 1149.5625150713258 306.3463478868518Q1150.959432247068 306.10550009793076 1152.1636711916733 306.10550009793076L1152.1636711916733 306.10550009793076Q1156.3303379400077 306.10550009793076 1157.7272551157498 310.07948861512824L1157.7272551157498 310.07948861512824Q1158.4257137036209 311.4764057908704 1158.4257137036209 313.54769677559153L1158.4257137036209 313.54769677559153Q1158.4257137036209 317.71436352392584 1155.6318793521366 323.2538626691102L1155.6318793521366 323.2538626691102Q1153.223401462926 328.2875814575604 1148.69546303121 334.62187830618427Q1144.1916093783861 340.9561751548082 1138.5557711176332 347.4590654556768Q1132.9199328568805 353.9619557565455 1127.2118402594513 359.93498092178777Q1121.4796628831302 365.9320908659222 1116.6145375469246 370.60453797099075Q1111.7734969896114 375.2769850760593 1108.8110691858824 377.709547744162L1108.8110691858824 377.709547744162Q1107.7754236935218 383.4417251204833 1107.7754236935218 388.4754439089334L1107.7754236935218 388.4754439089334Q1107.7754236935218 393.8463496018731 1109.6058668893218 397.8203381190706Q1111.4122253062299 401.8184114151602 1115.747485506809 401.8184114151602L1115.747485506809 401.8184114151602Q1119.9141522551433 401.8184114151602 1123.9122255512327 398.51879670694166Q1127.8862140684303 395.2191819987231 1131.2821678922173 390.7153283458993Q1134.654036937112 386.21147469307544 1136.91800615297 382.7432665326122L1136.91800615297 382.7432665326122Q1137.6164647408411 382.04480794474114 1137.785058193086 382.04480794474114L1137.785058193086 382.04480794474114Q1138.2908385498201 382.04480794474114 1138.2908385498201 382.91185998485696L1138.2908385498201 382.91185998485696Q1138.2908385498201 383.61031857272803 1137.785058193086 384.47737061284386L1137.785058193086 384.47737061284386Q1134.654036937112 389.34249594904924 1130.8486418721593 394.0149430541178Q1127.0191620283147 398.6873901591864 1122.5153083754906 401.8184114151602Q1118.011454722667 404.949432671134 1112.9777359342168 404.949432671134ZM1109.5095277737535 374.7712047193251L1109.5095277737535 374.7712047193251Q1113.3390076175983 371.3029965588618 1119.4806262350853 364.8723605946695Q1125.6463296314644 358.4658094093693 1132.317813384578 350.66234104832694Q1138.9892971376912 342.8588726872846 1144.5528810617677 335.3203368940554Q1150.0923802069522 327.78180110082616 1152.6935363272996 321.8810302722602L1152.6935363272996 321.8810302722602Q1153.72918181966 319.785654508647 1154.4276404075313 317.3771766194364Q1155.1260989954023 314.9446139513337 1155.1260989954023 312.84923818772046L1155.1260989954023 312.84923818772046Q1155.1260989954023 309.04384312276767 1152.3563494228101 309.04384312276767L1152.3563494228101 309.04384312276767Q1148.5268695789653 309.04384312276767 1142.120318393665 315.11320740357843L1142.120318393665 315.11320740357843Q1135.0153086204937 321.71243682001545 1128.4160792040566 331.8521287335921Q1121.8168497876195 341.99182064716877 1116.8794701147378 353.16715805310594Q1111.9420904418562 364.3665802379353 1109.5095277737535 374.7712047193251ZM1138.483516780957 404.7567544399971L1138.483516780957 404.7567544399971Q1135.3524955249832 404.7567544399971 1133.955578349241 402.685463455276Q1132.582745952391 400.6141724705549 1132.582745952391 397.4831512145811L1132.582745952391 397.4831512145811Q1132.582745952391 395.05058854647837 1133.0885263091252 392.8107041095125L1133.0885263091252 392.8107041095125Q1133.4497979925068 391.7509738382598 1134.9189695049254 387.60839186881765Q1136.3881410173437 383.4417251204833 1138.917042801015 378.4080063320331Q1141.421859805794 373.3742875435829 1144.360202830631 369.6411468153065Q1147.32263063436 365.9320908659222 1150.4295671114417 365.9320908659222L1150.4295671114417 365.9320908659222Q1151.8264842871838 365.9320908659222 1151.8264842871838 366.60646467490113L1151.8264842871838 366.60646467490113Q1151.8264842871838 367.3049232627722 1151.1280256993127 368.0033818506433L1151.1280256993127 368.0033818506433Q1147.6598175388494 372.17004859897764 1144.6251353984442 377.80588685973044Q1141.5904532580387 383.4417251204833 1139.591416609994 388.4754439089334Q1137.6164647408411 393.48507791849147 1137.2551930574596 396.08623403883894L1137.2551930574596 396.08623403883894Q1136.7494127007253 401.64981796291545 1140.554807765678 401.64981796291545L1140.554807765678 401.64981796291545Q1143.8544224738966 401.64981796291545 1147.5875632021732 398.61513582251007Q1151.2966191515575 395.5804536821047 1154.861166427589 390.8116674614677Q1158.4257137036209 386.04288124083075 1161.0268698239684 380.8405690001358L1161.0268698239684 380.8405690001358Q1163.7966193965603 375.4696633071962 1167.096234104779 370.70087708655916Q1170.3717640341054 365.9320908659222 1173.8399721945686 365.9320908659222L1173.8399721945686 365.9320908659222Q1175.2368893703108 365.9320908659222 1175.2368893703108 366.60646467490113L1175.2368893703108 366.60646467490113Q1175.2368893703108 367.3049232627722 1174.5384307824397 368.0033818506433L1174.5384307824397 368.0033818506433Q1171.0702226219764 372.17004859897764 1168.0355404815712 377.80588685973044Q1165.0008583411657 383.4417251204833 1163.001821693121 388.4754439089334Q1161.0268698239684 393.48507791849147 1160.6655981405868 396.08623403883894L1160.6655981405868 396.08623403883894Q1160.1598177838525 401.64981796291545 1163.965212848805 401.64981796291545L1163.965212848805 401.64981796291545Q1167.7706079137579 401.64981796291545 1171.7686812098475 398.18160980245216Q1175.7667545059371 394.7134016419889 1179.2349626664004 390.20954798916506Q1182.7031708268637 385.6816095574491 1184.7744618115848 382.57467308036746L1184.7744618115848 382.57467308036746Q1185.472920399456 381.8762144924964 1185.6415138517007 381.8762144924964L1185.6415138517007 381.8762144924964Q1186.171378987327 381.8762144924964 1186.171378987327 382.7432665326122L1186.171378987327 382.7432665326122Q1186.171378987327 383.4417251204833 1185.6415138517007 384.3087771605991L1185.6415138517007 384.3087771605991Q1182.8717642791084 388.8126308134229 1178.9700300985874 393.58141703405994Q1175.068295918066 398.3502032546969 1170.733035717487 401.55347884734704Q1166.397775516908 404.7567544399971 1161.8939218640842 404.7567544399971L1161.8939218640842 404.7567544399971Q1158.7629006081102 404.7567544399971 1157.365983432368 402.685463455276Q1155.9931510355182 400.6141724705549 1155.9931510355182 397.4831512145811L1155.9931510355182 397.4831512145811Q1155.9931510355182 395.05058854647837 1156.4989313922524 392.8107041095125L1156.4989313922524 392.8107041095125L1156.860203075634 391.24519348152563Q1153.5605883674154 395.5804536821047 1149.9960410913836 399.048661842568Q1146.4555785942441 402.5168700030313 1142.9873704337808 403.7211089476366L1142.9873704337808 403.7211089476366Q1140.3862143134334 404.7567544399971 1138.483516780957 404.7567544399971ZM1185.6415138517007 404.7567544399971L1185.6415138517007 404.7567544399971Q1182.5104925957269 404.7567544399971 1181.1376601988768 402.685463455276Q1179.7407430231347 400.6141724705549 1179.7407430231347 397.4831512145811L1179.7407430231347 397.4831512145811Q1179.7407430231347 395.05058854647837 1180.270608158761 392.8107041095125L1180.270608158761 392.8107041095125Q1180.7763885154952 390.3781414414098 1183.5702228669795 384.742303180657Q1186.3399724395717 379.10646491990417 1189.6395871477903 372.8685071868487L1189.6395871477903 372.8685071868487Q1187.9054830675586 373.54288099582766 1185.9064464195137 374.3376786992672Q1183.907409771469 375.10839162381455 1183.0403577313532 375.9754436639304L1183.0403577313532 375.9754436639304Q1182.3418991434821 376.33671534731195 1182.1733056912374 376.33671534731195L1182.1733056912374 376.33671534731195Q1181.643440555611 376.33671534731195 1181.643440555611 375.6382567594409L1181.643440555611 375.6382567594409Q1181.643440555611 374.072746131454 1183.5702228669795 372.67582895571184L1183.5702228669795 372.67582895571184Q1185.472920399456 371.3029965588618 1187.2792788163638 370.7731314232355Q1189.109722012164 370.26735106650125 1191.5422846802667 369.5688924786302L1191.5422846802667 369.5688924786302Q1193.444982212743 366.10068431816694 1195.6126123130325 362.3675435898905Q1197.7802424133222 358.63440286161403 1199.5143464935538 355.8646532890218L1199.5143464935538 355.8646532890218Q1200.718585438159 354.1305492087902 1202.9825546540171 351.43305397287435Q1205.2465238698749 348.75964351585054 1208.0162734424673 347.02553943561895L1208.0162734424673 347.02553943561895Q1209.5817840704542 345.9898939432584 1212.1829401908014 345.9898939432584L1212.1829401908014 345.9898939432584Q1214.0856377232778 345.9898939432584 1214.2542311755228 346.6642677522373L1214.2542311755228 346.6642677522373Q1211.6530750551751 347.3627263401084 1208.9555798192594 350.1324759127006Q1206.2821693622357 352.9263102641849 1203.8496066941327 356.5631118768929Q1201.4170440260302 360.19991348960093 1199.6829399457986 363.40318908225106Q1197.948835865567 366.60646467490113 1197.0817838254509 368.3405687551328L1197.0817838254509 368.3405687551328Q1200.718585438159 367.8347883983986 1203.1511481062619 367.8347883983986L1203.1511481062619 367.8347883983986Q1204.548065282004 367.8347883983986 1205.5837107743644 367.90704273507487Q1206.619356266725 368.0033818506433 1207.317814854596 368.17197530288803L1207.317814854596 368.17197530288803Q1208.7147320303382 368.3405687551328 1208.7147320303382 369.03902734300385L1208.7147320303382 369.03902734300385Q1208.7147320303382 369.7374859308749 1206.9806279501065 369.7374859308749L1206.9806279501065 369.7374859308749Q1205.5837107743644 369.7374859308749 1203.7532675785644 369.7374859308749Q1201.9469091616563 369.7374859308749 1199.851533398043 370.0746728353644L1199.851533398043 370.0746728353644Q1198.3101075489485 370.26735106650125 1196.648257805393 371.13440310661707Q1195.01049284073 372.0014551467329 1194.4806277051036 373.03710063909347L1194.4806277051036 373.03710063909347Q1190.6752326401509 379.97351696002 1187.7128048364218 386.3800681453202Q1184.7744618115848 392.8107041095125 1184.4372749070953 396.08623403883894L1184.4372749070953 396.08623403883894Q1183.907409771469 401.64981796291545 1187.7128048364218 401.64981796291545L1187.7128048364218 401.64981796291545Q1191.5422846802667 401.64981796291545 1195.4440188607878 398.2538641391285Q1199.345753041309 394.8819950942336 1202.8139612017724 390.3781414414098Q1206.2821693622357 385.87428778858595 1208.3534603469566 382.7432665326122L1208.3534603469566 382.7432665326122Q1209.0519189348277 382.04480794474114 1209.2205123870724 382.04480794474114L1209.2205123870724 382.04480794474114Q1209.750377522699 382.04480794474114 1209.750377522699 382.91185998485696L1209.750377522699 382.91185998485696Q1209.750377522699 383.61031857272803 1209.2205123870724 384.47737061284386L1209.2205123870724 384.47737061284386Q1206.2821693622357 388.98122426566766 1202.4526895183906 393.67775614962835Q1198.6472944534378 398.3502032546969 1194.4083733684272 401.55347884734704Q1190.1453675045245 404.7567544399971 1185.6415138517007 404.7567544399971ZM1227.26001177726 353.6006840731639L1227.26001177726 353.6006840731639Q1224.8274491091574 353.6006840731639 1224.321668752423 350.66234104832694L1224.321668752423 350.66234104832694Q1224.1289905212861 349.2654238725848 1226.0557728326548 347.8925914757347Q1227.958470365131 346.4956742999926 1229.1627093097363 345.9898939432584L1229.1627093097363 345.9898939432584Q1230.0297613498522 345.62862225987675 1230.5596264854785 345.46002880763206Q1231.0654068422127 345.2914353553873 1231.426678525594 345.2914353553873L1231.426678525594 345.2914353553873Q1232.6309174701996 345.2914353553873 1232.6309174701996 346.4956742999926L1232.6309174701996 346.4956742999926Q1232.6309174701996 347.8925914757347 1231.6916110934076 349.7952890082111Q1230.7282199377232 351.6979865406875 1230.7282199377232 351.6979865406875L1230.7282199377232 351.6979865406875Q1230.5596264854785 352.3964451285586 1229.523980993118 352.99856460086124Q1228.4642507218653 353.6006840731639 1227.26001177726 353.6006840731639ZM1209.9189709749435 404.7567544399971L1209.9189709749435 404.7567544399971Q1206.7879497189697 404.7567544399971 1205.4151173221196 402.685463455276Q1204.0182001463775 400.6141724705549 1204.0182001463775 397.4831512145811L1204.0182001463775 397.4831512145811Q1204.0182001463775 395.05058854647837 1204.548065282004 392.8107041095125L1204.548065282004 392.8107041095125Q1204.8852521864933 391.7509738382598 1206.354423698912 387.60839186881765Q1207.8476799902226 383.4417251204833 1210.3524969950015 378.4080063320331Q1212.8573139997804 373.3742875435829 1215.8197418035095 369.6411468153065Q1218.7580848283465 365.9320908659222 1221.8891060843202 365.9320908659222L1221.8891060843202 365.9320908659222Q1223.2619384811703 365.9320908659222 1223.2619384811703 366.60646467490113L1223.2619384811703 366.60646467490113Q1223.2619384811703 367.3049232627722 1222.5875646721915 368.0033818506433L1222.5875646721915 368.0033818506433Q1219.1193565117283 372.17004859897764 1216.0846743713228 377.80588685973044Q1213.0499922309175 383.4417251204833 1211.0509555828726 388.4754439089334Q1209.0519189348277 393.48507791849147 1208.7147320303382 396.08623403883894L1208.7147320303382 396.08623403883894Q1208.1848668947118 401.64981796291545 1211.9902619596646 401.64981796291545L1211.9902619596646 401.64981796291545Q1212.520127095291 401.64981796291545 1213.0499922309175 401.55347884734704Q1213.5557725876515 401.4812245106707 1214.2542311755228 401.2885462795339L1214.2542311755228 401.2885462795339Q1217.8910327882306 400.08430733492855 1221.3592409486942 396.78469262671Q1224.8274491091574 393.48507791849147 1227.7898769128863 389.511089401294Q1230.7282199377232 385.5130161052044 1232.6309174701996 382.57467308036746L1232.6309174701996 382.57467308036746Q1233.3293760580707 381.8762144924964 1233.4979695103152 381.8762144924964L1233.4979695103152 381.8762144924964Q1234.0278346459418 381.8762144924964 1234.0278346459418 382.7432665326122L1234.0278346459418 382.7432665326122Q1234.0278346459418 383.61031857272803 1233.4979695103152 384.47737061284386L1233.4979695103152 384.47737061284386Q1229.6925744453627 390.3781414414098 1224.562516541344 396.08623403883894Q1219.4565434162178 401.8184114151602 1214.4228246277676 403.7211089476366L1214.4228246277676 403.7211089476366Q1211.8216685074199 404.7567544399971 1209.9189709749435 404.7567544399971ZM1241.3014378713578 404.2509740832629L1241.3014378713578 404.2509740832629Q1236.6289907662892 404.2509740832629 1233.160782605826 401.9147505307286Q1229.6925744453627 399.55444219930223 1229.6925744453627 393.48507791849147L1229.6925744453627 393.48507791849147Q1229.6925744453627 389.67968285353874 1231.595271977839 385.0794900851465Q1233.4979695103152 380.47929731675424 1236.5326516507207 376.0717827794988Q1239.5673337911262 371.6401834633513 1243.2041354038342 368.70184043851435L1243.2041354038342 368.70184043851435Q1244.0711874439498 368.0033818506433 1245.468104619692 368.0033818506433L1245.468104619692 368.0033818506433Q1247.5393956044131 365.9320908659222 1250.2368908403291 364.8723605946695Q1252.9343860762451 363.836715102309 1255.3428639654555 363.836715102309L1255.3428639654555 363.836715102309Q1259.6781241660346 363.836715102309 1263.4112648943112 366.60646467490113Q1267.1444056225878 369.4002990263854 1267.1444056225878 375.4696633071962L1267.1444056225878 375.4696633071962Q1267.1444056225878 378.9378714676594 1265.2417080901114 383.7789120249728L1265.2417080901114 383.7789120249728Q1263.5076040098797 388.2827656777966 1259.8708023971717 393.05155189843356Q1256.2099160055714 397.8203381190706 1251.4411297849344 401.0476984906128Q1246.6723435642975 404.2509740832629 1241.3014378713578 404.2509740832629ZM1241.132844419113 402.1555983196497L1241.132844419113 402.1555983196497Q1244.938239484066 402.1555983196497 1249.0326518957238 399.21725529481273Q1253.1029795284899 396.27891226997576 1256.571187688953 391.67871950158354Q1260.0393958494162 387.07852673319127 1261.6049064774033 382.4060796281227L1261.6049064774033 382.4060796281227Q1263.3390105576348 377.709547744162 1263.3390105576348 374.072746131454L1263.3390105576348 374.072746131454Q1263.3390105576348 369.5688924786302 1260.906447889532 367.5698558305854Q1258.4738852214296 365.57081918254056 1255.5355421965924 365.57081918254056L1255.5355421965924 365.57081918254056Q1250.8390103126317 365.57081918254056 1247.3708021521684 368.70184043851435L1247.3708021521684 368.70184043851435Q1249.1049062324 369.7374859308749 1247.7320738355502 370.7731314232355L1247.7320738355502 370.7731314232355Q1245.2995111674475 372.8685071868487 1242.264829027042 376.5053087995567Q1239.2301468866367 380.14211041226474 1237.496042806405 383.27313166823853L1237.496042806405 383.27313166823853Q1236.2677190829077 385.3444226529597 1235.3284127061156 388.64403736117816Q1234.3650215504313 391.9436520693967 1234.3650215504313 394.8819950942336L1234.3650215504313 394.8819950942336Q1234.3650215504313 397.8203381190706 1235.8341930628499 399.98796821936014Q1237.3274493541603 402.1555983196497 1241.132844419113 402.1555983196497ZM1271.6482592754114 404.2509740832629L1271.6482592754114 404.2509740832629Q1271.1424789186772 404.2509740832629 1270.612613783051 403.55251549539184L1270.612613783051 403.55251549539184Q1269.2156966073087 401.98700486740495 1269.2156966073087 398.51879670694166L1269.2156966073087 398.51879670694166Q1269.2156966073087 394.8819950942336 1270.5162746674823 390.2818023258414Q1271.8168527276562 385.6816095574491 1273.5509568078878 381.8762144924964L1273.5509568078878 381.8762144924964Q1275.2850608881195 378.23941287978835 1276.77831717943 375.4696633071962Q1278.2474886918485 372.67582895571184 1278.7532690485828 372.0014551467329L1278.7532690485828 372.0014551467329Q1280.6800513599514 369.5688924786302 1282.7513423446721 368.0033818506433Q1284.8226333293933 366.4378712226564 1286.9180090930067 366.4378712226564L1286.9180090930067 366.4378712226564Q1287.953654585367 366.4378712226564 1288.5557740576699 366.96773635828276Q1289.1578935299726 367.47351671501696 1288.6521131732384 367.8347883983986L1288.6521131732384 367.8347883983986Q1287.255195997496 368.53324698626966 1285.0153115605303 371.567929126675Q1282.7513423446721 374.60261126708036 1280.3187796765696 378.57659978427785L1280.3187796765696 378.57659978427785Q1278.7532690485828 381.34634935687006 1276.344791159372 386.04288124083075Q1273.9122284912696 390.7153283458993 1273.5509568078878 394.0149430541178L1273.5509568078878 394.0149430541178Q1273.5509568078878 395.41186022986 1274.249415395759 395.2191819987231L1274.249415395759 395.2191819987231L1278.584675596338 388.11417222555184Q1282.221477209046 382.04480794474114 1288.1222480376118 376.1440371161751Q1294.0230188661778 370.26735106650125 1300.7908417348597 366.4378712226564L1300.7908417348597 366.4378712226564Q1301.4893003227307 366.10068431816694 1302.260013247278 365.9320908659222Q1303.0307261718256 365.7394126347853 1303.7291847596966 365.7394126347853L1303.7291847596966 365.7394126347853Q1305.2946953876835 365.7394126347853 1305.2946953876835 366.799142906038L1305.2946953876835 366.799142906038Q1305.2946953876835 367.1363298105275 1304.4276433475677 368.53324698626966L1304.4276433475677 368.53324698626966Q1300.7908417348597 373.3742875435829 1298.6954659712464 378.67293889984626Q1296.6241749865255 383.94750547721753 1296.094309850899 390.20954798916506L1296.094309850899 390.20954798916506Q1295.9257163986545 394.0149430541178 1296.8891075543384 397.2182186467679Q1297.8284139311309 400.42149423941805 1301.128028639349 400.42149423941805L1301.128028639349 400.42149423941805Q1304.957508483194 400.42149423941805 1308.4257166436573 397.31455776233634Q1311.8939248041206 394.18353650636254 1314.928606944526 389.9446154213519Q1317.9632890849311 385.6816095574491 1320.203173521897 382.4060796281227L1320.203173521897 382.4060796281227Q1320.5644452052788 381.8762144924964 1320.7330386575236 381.8762144924964L1320.7330386575236 381.8762144924964Q1321.2388190142578 381.8762144924964 1321.2388190142578 382.91185998485696L1321.2388190142578 382.91185998485696Q1321.2388190142578 383.7789120249728 1320.5644452052788 385.0072357484702L1320.5644452052788 385.0072357484702Q1317.9632890849311 388.8126308134229 1314.8322678289574 393.147891014002Q1311.7012465729838 397.4831512145811 1307.9921906235995 400.42149423941805Q1304.259049895323 403.3839220431471 1299.5625180113623 403.3839220431471L1299.5625180113623 403.3839220431471Q1295.2272578107832 403.3839220431471 1293.324560278307 400.08430733492855Q1291.4218627458304 396.78469262671 1291.4218627458304 392.11224552164146L1291.4218627458304 392.11224552164146Q1291.4218627458304 387.07852673319127 1293.0596277104937 381.34634935687006Q1294.721477454049 375.6382567594409 1296.9613618910148 371.808776915596L1296.9613618910148 371.808776915596Q1292.4575082381912 375.10839162381455 1287.6164676808778 380.04577129669633Q1282.7513423446721 385.0072357484702 1279.2831341842088 390.54673489365456L1279.2831341842088 390.54673489365456Q1278.0788952396038 392.8107041095125 1275.9835194759903 396.27891226997576Q1273.9122284912696 399.74712043043905 1273.2137699033983 401.8184114151602L1273.2137699033983 401.8184114151602Q1273.0451764511536 402.5168700030313 1272.8765829989088 402.9503960230892Q1272.6839047677718 403.3839220431471 1272.5153113155272 403.7211089476366L1272.5153113155272 403.7211089476366Q1272.3467178632825 404.2509740832629 1271.6482592754114 404.2509740832629Z " fill="#f7f7f9" transform="matrix(0.6622572949354887,0,0,0.6622572949354887,0,49.90695975305448)"/></g></svg>